<mxfile host="app.diagrams.net" modified="2024-04-25T18:07:28.857Z" agent="Mozilla/5.0 (Windows NT 10.0; Win64; x64) AppleWebKit/537.36 (KHTML, like Gecko) Chrome/124.0.0.0 Safari/537.36" etag="jSXOH98UzqfkOX3gR3XW" version="24.3.0" type="device">
  <diagram name="Page-1" id="loiK-oe4-Y60beQngraq">
    <mxGraphModel dx="1050" dy="557" grid="1" gridSize="10" guides="1" tooltips="1" connect="1" arrows="1" fold="1" page="1" pageScale="1" pageWidth="850" pageHeight="1100" math="0" shadow="0">
      <root>
        <mxCell id="0" />
        <mxCell id="1" parent="0" />
        <mxCell id="BSfGRRiQm44au80E1FWg-1" value="&lt;font style=&quot;font-size: 17px;&quot;&gt;Application Flow&lt;/font&gt;" style="rounded=0;whiteSpace=wrap;html=1;" vertex="1" parent="1">
          <mxGeometry x="10" y="20" width="220" height="60" as="geometry" />
        </mxCell>
        <mxCell id="BSfGRRiQm44au80E1FWg-4" value="" style="whiteSpace=wrap;html=1;aspect=fixed;" vertex="1" parent="1">
          <mxGeometry x="30" y="190" width="240" height="240" as="geometry" />
        </mxCell>
        <mxCell id="BSfGRRiQm44au80E1FWg-6" value="LandingPage" style="text;html=1;align=center;verticalAlign=middle;resizable=0;points=[];autosize=1;strokeColor=none;fillColor=none;" vertex="1" parent="1">
          <mxGeometry x="30" y="160" width="90" height="30" as="geometry" />
        </mxCell>
      </root>
    </mxGraphModel>
  </diagram>
</mxfile>
